<svg xmlns="http://www.w3.org/2000/svg" viewBox="0 0 100 100"><defs><style>.cls-1,.cls-3{fill:#f0d945;}.cls-2{fill:#0d0900;}.cls-3{stroke:#e8aa41;stroke-miterlimit:10;stroke-width:0.25px;}</style></defs><title>alert</title><g id="Layer_2" data-name="Layer 2"><rect class="cls-1" x="63.64" y="82.91" width="5.79" height="26.62" transform="translate(162.76 29.68) rotate(90)"/><polygon class="cls-2" points="73.69 99.12 79.85 93.33 73 93.33 67.15 99.12 73.69 99.12"/><path class="cls-2" d="M60.08,99.12l5.85-5.79H59.08l-5.85,5.79Z" transform="translate(0 0)"/><path class="cls-1" d="M79.85,99.12V93.33H100v5.79Z" transform="translate(0 0)"/><path class="cls-2" d="M100,99.12V93.33h-.38l-5.85,5.79Z" transform="translate(0 0)"/><path class="cls-2" d="M86.69,99.12l5.85-5.79H85.69l-5.85,5.79Z" transform="translate(0 0)"/><rect class="cls-1" x="10.41" y="82.91" width="5.79" height="26.62" transform="translate(109.53 82.91) rotate(90)"/><polygon class="cls-2" points="20.46 99.12 26.61 93.33 19.77 93.33 13.92 99.12 20.46 99.12"/><path class="cls-2" d="M6.85,99.12l5.85-5.79H5.85L0,99.12Z" transform="translate(0 0)"/><rect class="cls-1" x="37.03" y="82.91" width="5.79" height="26.62" transform="translate(136.14 56.3) rotate(90)"/><polygon class="cls-2" points="47.08 99.12 53.23 93.33 46.38 93.33 40.54 99.12 47.08 99.12"/><path class="cls-2" d="M33.46,99.12l5.85-5.79H32.46l-5.85,5.79Z" transform="translate(0 0)"/><rect class="cls-1" x="93.33" y="46.88" width="5.79" height="26.62"/><polygon class="cls-2" points="99.12 67.35 93.33 73.5 93.33 66.65 99.12 60.81 99.12 67.35"/><path class="cls-2" d="M99.12,53.73l-5.79,5.85V52.73l5.79-5.85Z" transform="translate(0 0)"/><rect class="cls-1" x="93.33" y="73.5" width="5.79" height="26.5"/><path class="cls-2" d="M99.12,94l-5.79,6V93.27l5.79-5.85Z" transform="translate(0 0)"/><path class="cls-2" d="M99.12,80.35l-5.79,5.85V79.35l5.79-5.85Z" transform="translate(0 0)"/><rect class="cls-1" x="93.33" width="5.79" height="20.27"/><polygon class="cls-2" points="99.12 14.12 93.33 20.27 93.33 13.42 99.12 7.58 99.12 14.12"/><rect class="cls-1" x="93.33" y="20.27" width="5.79" height="26.62"/><polygon class="cls-2" points="99.12 40.73 93.33 46.88 93.33 40.04 99.12 34.19 99.12 40.73"/><path class="cls-2" d="M99.12,27.12,93.33,33V26.12l5.79-5.85Z" transform="translate(0 0)"/></g><g id="Layer_1" data-name="Layer 1"><polygon class="cls-1" points="79.85 0.65 53.23 0.65 26.61 0.65 0 0.65 0 6.44 26.61 6.44 53.23 6.44 79.85 6.44 100 6.44 100 0.65 79.85 0.65"/><polygon class="cls-2" points="6.15 6.44 0 0.65 6.85 0.65 12.69 6.44 6.15 6.44"/><rect class="cls-1" x="1" y="26.62" width="5.79" height="26.62"/><polygon class="cls-2" points="6.79 32.77 1 26.61 1 33.46 6.79 39.31 6.79 32.77"/><rect class="cls-1" x="1" width="5.79" height="26.62"/><polygon class="cls-1" points="1 76.61 1 100 6.79 100 6.79 76.61 6.79 53.23 1 53.23 1 76.61"/><path class="cls-2" d="M6.79,46.38,1,40.54v6.85l5.79,5.85Z" transform="translate(0 0)"/><polygon class="cls-2" points="6.79 6.15 1 0 1 6.85 6.79 12.69 6.79 6.15"/><path class="cls-2" d="M6.79,19.77,1,13.92v6.85l5.79,5.85Z" transform="translate(0 0)"/><polygon class="cls-2" points="6.79 86 1 79.85 1 86.69 6.79 92.54 6.79 86"/><path class="cls-2" d="M6.79,99.62,1,93.77V100H6.79Z" transform="translate(0 0)"/><polygon class="cls-2" points="6.79 59.38 1 53.23 1 60.08 6.79 65.92 6.79 59.38"/><path class="cls-2" d="M6.79,73,1,67.15V74l5.79,5.85Z" transform="translate(0 0)"/><polygon class="cls-2" points="32.77 6.44 26.61 0.65 33.46 0.65 39.31 6.44 32.77 6.44"/><path class="cls-2" d="M46.38,6.44,40.54.65h6.85l5.85,5.79Z" transform="translate(0 0)"/><path class="cls-2" d="M19.77,6.44,13.92.65h6.85l5.85,5.79Z" transform="translate(0 0)"/><polygon class="cls-2" points="86 6.44 79.85 0.65 86.69 0.65 92.54 6.44 86 6.44"/><path class="cls-2" d="M99.62,6.44,93.77.65H100V6.44Z" transform="translate(0 0)"/><polygon class="cls-2" points="59.38 6.44 53.23 0.65 60.08 0.65 65.92 6.44 59.38 6.44"/><path class="cls-2" d="M73,6.44,67.15.65H74l5.85,5.79Z" transform="translate(0 0)"/><rect class="cls-3" x="6.79" y="6.15" width="86.54" height="87.17"/></g></svg>