<svg xmlns="http://www.w3.org/2000/svg" viewBox="0 0 100.25 100.25"><defs><style>.cls-1,.cls-3{fill:#f0d945;}.cls-2{fill:#0d0900;}.cls-3{stroke:#e8aa41;stroke-miterlimit:10;stroke-width:0.25px;}</style></defs><title>alerts</title><g id="Layer_2" data-name="Layer 2"><rect class="cls-1" x="63.64" y="82.91" width="5.79" height="26.62" transform="translate(162.88 29.81) rotate(90)"/><polygon class="cls-2" points="73.82 99.24 79.97 93.45 73.13 93.45 67.28 99.24 73.82 99.24"/><path class="cls-2" d="M60.08,99.12l5.85-5.79H59.08l-5.85,5.79Z" transform="translate(0.13 0.13)"/><path class="cls-1" d="M79.85,99.12V93.33H100v5.79Z" transform="translate(0.13 0.13)"/><path class="cls-2" d="M100,99.12V93.33h-.38l-5.85,5.79Z" transform="translate(0.13 0.13)"/><path class="cls-2" d="M86.69,99.12l5.85-5.79H85.69l-5.85,5.79Z" transform="translate(0.13 0.13)"/><rect class="cls-1" x="10.41" y="82.91" width="5.79" height="26.62" transform="translate(109.65 83.04) rotate(90)"/><polygon class="cls-2" points="20.59 99.24 26.74 93.45 19.89 93.45 14.05 99.24 20.59 99.24"/><path class="cls-2" d="M6.85,99.12l5.85-5.79H5.85L0,99.12Z" transform="translate(0.13 0.13)"/><rect class="cls-1" x="37.03" y="82.91" width="5.79" height="26.62" transform="translate(136.27 56.42) rotate(90)"/><polygon class="cls-2" points="47.2 99.24 53.36 93.45 46.51 93.45 40.66 99.24 47.2 99.24"/><path class="cls-2" d="M33.46,99.12l5.85-5.79H32.46l-5.85,5.79Z" transform="translate(0.13 0.13)"/><rect class="cls-1" x="93.45" y="47.01" width="5.79" height="26.62"/><polygon class="cls-2" points="99.24 67.47 93.45 73.63 93.45 66.78 99.24 60.93 99.24 67.47"/><path class="cls-2" d="M99.12,53.73l-5.79,5.85V52.73l5.79-5.85Z" transform="translate(0.13 0.13)"/><rect class="cls-1" x="93.45" y="73.63" width="5.79" height="26.5"/><path class="cls-2" d="M99.12,94l-5.79,6V93.27l5.79-5.85Z" transform="translate(0.13 0.13)"/><path class="cls-2" d="M99.12,80.35l-5.79,5.85V79.35l5.79-5.85Z" transform="translate(0.13 0.13)"/><rect class="cls-1" x="93.45" y="0.12" width="5.79" height="20.27"/><polygon class="cls-2" points="99.24 14.24 93.45 20.39 93.45 13.55 99.24 7.7 99.24 14.24"/><rect class="cls-1" x="93.45" y="20.39" width="5.79" height="26.62"/><polygon class="cls-2" points="99.24 40.86 93.45 47.01 93.45 40.16 99.24 34.32 99.24 40.86"/><path class="cls-2" d="M99.12,27.12,93.33,33V26.12l5.79-5.85Z" transform="translate(0.13 0.13)"/></g><g id="Layer_1" data-name="Layer 1"><polygon class="cls-1" points="79.97 0.78 53.36 0.78 26.74 0.78 0.13 0.78 0.13 6.57 26.74 6.57 53.36 6.57 79.97 6.57 100.13 6.57 100.13 0.78 79.97 0.78"/><polygon class="cls-2" points="6.28 6.57 0.13 0.78 6.97 0.78 12.82 6.57 6.28 6.57"/><rect class="cls-1" x="1.13" y="26.74" width="5.79" height="26.62"/><polygon class="cls-2" points="6.91 32.89 1.13 26.74 1.13 33.59 6.91 39.43 6.91 32.89"/><rect class="cls-1" x="1.13" y="0.13" width="5.79" height="26.62"/><polygon class="cls-1" points="1.13 76.74 1.13 100.13 6.91 100.13 6.91 76.74 6.91 53.36 1.13 53.36 1.13 76.74"/><path class="cls-2" d="M6.79,46.38,1,40.54v6.85l5.79,5.85Z" transform="translate(0.13 0.13)"/><polygon class="cls-2" points="6.91 6.28 1.13 0.13 1.13 6.97 6.91 12.82 6.91 6.28"/><path class="cls-2" d="M6.79,19.77,1,13.92v6.85l5.79,5.85Z" transform="translate(0.13 0.13)"/><polygon class="cls-2" points="6.91 86.13 1.13 79.97 1.13 86.82 6.91 92.66 6.91 86.13"/><path class="cls-2" d="M6.79,99.62,1,93.77V100H6.79Z" transform="translate(0.13 0.13)"/><polygon class="cls-2" points="6.91 59.51 1.13 53.36 1.13 60.2 6.91 66.05 6.91 59.51"/><path class="cls-2" d="M6.79,73,1,67.15V74l5.79,5.85Z" transform="translate(0.13 0.13)"/><polygon class="cls-2" points="32.89 6.57 26.74 0.78 33.59 0.78 39.43 6.57 32.89 6.57"/><path class="cls-2" d="M46.38,6.44,40.54.65h6.85l5.85,5.79Z" transform="translate(0.13 0.13)"/><path class="cls-2" d="M19.77,6.44,13.92.65h6.85l5.85,5.79Z" transform="translate(0.13 0.13)"/><polygon class="cls-2" points="86.13 6.57 79.97 0.78 86.82 0.78 92.66 6.57 86.13 6.57"/><path class="cls-2" d="M99.62,6.44,93.77.65H100V6.44Z" transform="translate(0.13 0.13)"/><polygon class="cls-2" points="59.51 6.57 53.36 0.78 60.2 0.78 66.05 6.57 59.51 6.57"/><path class="cls-2" d="M73,6.44,67.15.65H74l5.85,5.79Z" transform="translate(0.13 0.13)"/><rect class="cls-3" x="0.13" y="0.13" width="100" height="100"/></g></svg>