<svg id="Android" xmlns="http://www.w3.org/2000/svg" viewBox="0 0 146.61 174"><defs><style>.cls-1{fill:#f0d945;}</style></defs><title>android-yellow</title><rect class="cls-1" y="56.96" width="20.23" height="64.93" rx="10.12" ry="10.12"/><rect class="cls-1" x="126.38" y="56.96" width="20.23" height="64.93" rx="10.12" ry="10.12"/><path class="cls-1" d="M52.29,71.26v70a10,10,0,0,0,10,10h9.29v25.29a10.12,10.12,0,1,0,20.23,0V151.26h16.43v25.29a10.12,10.12,0,1,0,20.23,0V151.26h9.12a10,10,0,0,0,10-10v-70Z" transform="translate(-26.67 -12.67)"/><path class="cls-1" d="M138.7,41a50.45,50.45,0,0,0-16.39-13l8.17-14.16a.79.79,0,0,0-.29-1.08l-.13-.08a.79.79,0,0,0-1.08.29l-8.25,14.28a43.67,43.67,0,0,0-10.53-3.25,67.93,67.93,0,0,0-10.07-.8,68.36,68.36,0,0,0-10.87,1,45.25,45.25,0,0,0-10,3.14L71,13.06a.79.79,0,0,0-1.08-.29l-.13.08a.79.79,0,0,0-.29,1.08l8.22,14.24a50.11,50.11,0,0,0-19.2,16.73,43.85,43.85,0,0,0-6.23,20.67h95.24A44.72,44.72,0,0,0,138.7,41ZM77.52,50.41a4.64,4.64,0,1,1,4.64-4.64A4.64,4.64,0,0,1,77.52,50.41Zm44.84,0A4.64,4.64,0,1,1,127,45.78,4.64,4.64,0,0,1,122.36,50.41Z" transform="translate(-26.67 -12.67)"/></svg>