<svg id="Layer_3" data-name="Layer 3" xmlns="http://www.w3.org/2000/svg" xmlns:xlink="http://www.w3.org/1999/xlink" viewBox="0 0 138.29 164.13"><defs><style>.cls-1{fill:url(#linear-gradient);}.cls-2{fill:url(#linear-gradient-2);}.cls-3{fill:url(#linear-gradient-3);}.cls-4{fill:url(#linear-gradient-4);}</style><linearGradient id="linear-gradient" y1="84.36" x2="19.08" y2="84.36" gradientUnits="userSpaceOnUse"><stop offset="0" stop-color="#3a884b"/><stop offset="1" stop-color="#8ac058"/></linearGradient><linearGradient id="linear-gradient-2" x1="119.21" y1="84.36" x2="138.29" y2="84.36" xlink:href="#linear-gradient"/><linearGradient id="linear-gradient-3" x1="55" y1="127.3" x2="144.83" y2="127.3" xlink:href="#linear-gradient"/><linearGradient id="linear-gradient-4" x1="55" y1="42.55" x2="144.83" y2="42.55" xlink:href="#linear-gradient"/></defs><title>android</title><rect class="cls-1" y="53.73" width="19.08" height="61.25" rx="9.54" ry="9.54"/><rect class="cls-2" x="119.21" y="53.73" width="19.08" height="61.25" rx="9.54" ry="9.54"/><path class="cls-3" d="M55,72.88v66.06a9.43,9.43,0,0,0,9.4,9.4h8.77v23.86a9.54,9.54,0,1,0,19.08,0V148.33h15.5v23.86a9.54,9.54,0,1,0,19.08,0V148.33h8.6a9.43,9.43,0,0,0,9.4-9.4V72.88Z" transform="translate(-30.83 -17.6)"/><path class="cls-4" d="M136.5,44.38A47.59,47.59,0,0,0,121,32.14l7.71-13.35a.74.74,0,0,0-.27-1l-.13-.07a.74.74,0,0,0-1,.27l-7.78,13.47a41.2,41.2,0,0,0-9.93-3.07,64.08,64.08,0,0,0-9.5-.75,64.48,64.48,0,0,0-10.25.94,42.69,42.69,0,0,0-9.41,3L72.64,18a.74.74,0,0,0-1-.27l-.13.07a.74.74,0,0,0-.27,1L79,32.22A47.26,47.26,0,0,0,60.88,48,41.36,41.36,0,0,0,55,67.5h89.83A42.18,42.18,0,0,0,136.5,44.38ZM78.79,53.21a4.38,4.38,0,1,1,4.38-4.37A4.37,4.37,0,0,1,78.79,53.21Zm42.3,0a4.38,4.38,0,1,1,4.38-4.37A4.37,4.37,0,0,1,121.09,53.21Z" transform="translate(-30.83 -17.6)"/></svg>