<svg id="Layer_2" data-name="Layer 2" xmlns="http://www.w3.org/2000/svg" xmlns:xlink="http://www.w3.org/1999/xlink" viewBox="0 0 132.22 156.96"><defs><style>.cls-1{fill:url(#linear-gradient);}.cls-2{fill:url(#linear-gradient-2);}</style><linearGradient id="linear-gradient" x1="34.25" y1="118.64" x2="166.47" y2="118.64" gradientUnits="userSpaceOnUse"><stop offset="0" stop-color="#3a884b"/><stop offset="1" stop-color="#8ac058"/></linearGradient><linearGradient id="linear-gradient-2" x1="100.39" y1="40.2" x2="133.27" y2="40.2" xlink:href="#linear-gradient"/></defs><title>apple</title><path class="cls-1" d="M162.22,74.38a33.35,33.35,0,0,0-4-4.75,36.27,36.27,0,0,0-8.25-6,41,41,0,0,0-19.19-4.81,42.5,42.5,0,0,0-6.06.44,65.12,65.12,0,0,0-15.25,4.44,31,31,0,0,1-4.81,1.69,30.17,30.17,0,0,1-4.37.79C98.77,65.71,96.39,65,93.5,64c-6.1-2.08-7.14-2.81-10.58-3.67a33.73,33.73,0,0,0-10.06-1.21A33.42,33.42,0,0,0,62,61.55a42.86,42.86,0,0,0-11,5.95A40.52,40.52,0,0,0,39.17,82.92c-8.32,17.49-4,36.14-2.08,44.33a101.69,101.69,0,0,0,12.7,29.22c1.26,1.92,3.59,5.18,6.41,8.66a50.46,50.46,0,0,0,6.56,7.25c5.46,4.71,9.62,5.6,10.88,5.82a18.19,18.19,0,0,0,2.24.26,32.49,32.49,0,0,0,3.58-.29A36.46,36.46,0,0,0,87.54,176c1.47-.57,1.08-.51,2.54-1.08a40.08,40.08,0,0,1,10.13-2.5c.82-.09,2-.19,3.39-.23.35,0,.87,0,1.49.1a46,46,0,0,1,5.7.91c6.17,1.44,10.09,4.26,17.55,5a19.61,19.61,0,0,0,2.91.15c8.65-.35,15-7.72,18.91-12.33a67.17,67.17,0,0,0,4.08-5.37c6.42-9,9.46-16.21,10.17-18.29.08-.24.58-1.74,1.32-3.77.3-.82.56-1.5.73-2a34.53,34.53,0,0,1-4.25-62.22Z" transform="translate(-34.25 -21.5)"/><path class="cls-2" d="M100.44,58.63a.48.48,0,0,1,0-.31s0-.73,0-2.19,0-2.77,0-3a25.91,25.91,0,0,1,2-8.25c5.85-14.17,19-20.21,19-20.21a36.67,36.67,0,0,1,11.83-3.17A35.1,35.1,0,0,1,131,36.75a40.16,40.16,0,0,1-16.75,18.66,31.37,31.37,0,0,1-5.64,2.39,23.52,23.52,0,0,1-5,.92C102.06,58.83,100.66,59.12,100.44,58.63Z" transform="translate(-34.25 -21.5)"/></svg>