<svg id="Layer_9" data-name="Layer 9" xmlns="http://www.w3.org/2000/svg" xmlns:xlink="http://www.w3.org/1999/xlink" viewBox="0 0 164.13 167.17"><defs><style>.cls-1{fill:url(#linear-gradient);}.cls-2{fill:url(#linear-gradient-2);}.cls-3{fill:url(#linear-gradient-3);}.cls-4{fill:url(#linear-gradient-4);}.cls-5{fill:url(#linear-gradient-5);}</style><linearGradient id="linear-gradient" x1="39.17" y1="68.4" x2="161.14" y2="68.4" gradientUnits="userSpaceOnUse"><stop offset="0" stop-color="#3a884b"/><stop offset="1" stop-color="#8ac058"/></linearGradient><linearGradient id="linear-gradient-2" x1="45.63" y1="92.7" x2="69.84" y2="92.7" xlink:href="#linear-gradient"/><linearGradient id="linear-gradient-3" x1="92.62" y1="92.7" x2="116.83" y2="92.7" xlink:href="#linear-gradient"/><linearGradient id="linear-gradient-4" x1="82.82" y1="153.2" x2="117.31" y2="153.2" xlink:href="#linear-gradient"/><linearGradient id="linear-gradient-5" x1="17.9" y1="101.19" x2="182.03" y2="101.19" xlink:href="#linear-gradient"/></defs><title>cs</title><path class="cls-1" d="M39.66,106.29A15.48,15.48,0,0,1,44,98.59c3.63-3.28,8.14-3.19,9.91-3.19,9.31,0,18.35-3.79,27.63-4.54s23.59-7.07,45.42-33a21.2,21.2,0,0,0-.55,8.17c1.7,12.6,15.7,22.92,34.75,26.64a70.82,70.82,0,0,0-9.85-33.3C135,32.67,106.48,30.73,103.12,30.57c-4-.2-32-1-50.6,24.27C36.51,76.61,39.13,101.84,39.66,106.29Z" transform="translate(-17.9 -17.6)"/><ellipse class="cls-2" cx="57.73" cy="92.7" rx="12.11" ry="13.39"/><ellipse class="cls-3" cx="104.73" cy="92.7" rx="12.11" ry="13.39"/><path class="cls-4" d="M82.82,144.81a42.58,42.58,0,0,0,34.47,0c0,.85.28,8.27-5.65,13.17A16,16,0,0,1,101,161.5a16.8,16.8,0,0,1-12.48-3.75A17,17,0,0,1,82.82,144.81Z" transform="translate(-17.9 -17.6)"/><path class="cls-5" d="M180.29,91.46A35.45,35.45,0,0,0,171,76.14C161.71,42.27,133.28,17.6,99.65,17.6c-33.88,0-62.47,25-71.51,59.28a35.38,35.38,0,0,0-8.59,14.58c-2.83,9.48-2.45,22.6,4.65,31.18a22.83,22.83,0,0,0,5.11,4.57h0c9.6,30.4,34.84,52.67,65.06,55a7.51,7.51,0,1,0-.5-9.25C60.1,169.6,33.64,138.23,33.64,100c0-40.46,29.65-73.25,66.21-73.25s66.21,32.8,66.21,73.25a79.83,79.83,0,0,1-4.83,27.47,6.64,6.64,0,0,0,8.66,0l0-.1.08-.25-.11.35a43,43,0,0,0,4-3.22s.95-.81,1.71-1.62C183.28,114.43,183,100.56,180.29,91.46Z" transform="translate(-17.9 -17.6)"/></svg>