<svg id="Layer_2" data-name="Layer 2" xmlns="http://www.w3.org/2000/svg" xmlns:xlink="http://www.w3.org/1999/xlink" viewBox="0 0 127.48 167.17"><defs><style>.cls-1{fill:url(#linear-gradient);}</style><linearGradient id="linear-gradient" x1="-22.36" y1="88.46" x2="105.12" y2="88.46" gradientTransform="translate(40.69 -4.87)" gradientUnits="userSpaceOnUse"><stop offset="0" stop-color="#3a884b"/><stop offset="1" stop-color="#8ac058"/></linearGradient></defs><title>devices</title><path class="cls-1" d="M132.58,0h-101A13.27,13.27,0,0,0,18.32,13.23V153.94a13.27,13.27,0,0,0,13.23,13.23h101a13.27,13.27,0,0,0,13.23-13.23V13.23A13.27,13.27,0,0,0,132.58,0ZM82.92,164.19a4.37,4.37,0,1,1,4.37-4.37A4.37,4.37,0,0,1,82.92,164.19ZM133.78,152h-102V16.84h102Z" transform="translate(-18.32 0)"/></svg>