<svg id="Layer_8" data-name="Layer 8" xmlns="http://www.w3.org/2000/svg" xmlns:xlink="http://www.w3.org/1999/xlink" viewBox="0 0 175.66 156.36"><defs><style>.cls-1{fill:url(#linear-gradient);}.cls-2{fill:url(#linear-gradient-2);}.cls-3{fill:url(#linear-gradient-3);}.cls-4{fill:url(#linear-gradient-4);}.cls-5{fill:url(#linear-gradient-5);}</style><linearGradient id="linear-gradient" x1="16.11" y1="66.17" x2="65.84" y2="66.17" gradientUnits="userSpaceOnUse"><stop offset="0" stop-color="#3a884b"/><stop offset="1" stop-color="#8ac058"/></linearGradient><linearGradient id="linear-gradient-2" x1="16.11" y1="64.16" x2="65.84" y2="64.16" gradientTransform="matrix(1, 0, 0, -1, 0, 200)" xlink:href="#linear-gradient"/><linearGradient id="linear-gradient-3" x1="53.32" y1="28.55" x2="80.13" y2="28.55" xlink:href="#linear-gradient"/><linearGradient id="linear-gradient-4" x1="53.32" y1="127.8" x2="80.13" y2="127.8" xlink:href="#linear-gradient"/><linearGradient id="linear-gradient-5" x1="83.89" y1="77.02" x2="175.66" y2="77.02" xlink:href="#linear-gradient"/></defs><title>forward</title><path class="cls-1" d="M65.84,31.48v39.7A27.09,27.09,0,0,0,60,72.5C43.3,78.3,42.74,98.73,42.72,101H16.16c-.65-22,5-37.89,9.35-47.2S34.25,39,42,35.32C51,31.07,60.75,31.14,65.84,31.48Z" transform="translate(-16.11 -22.98)"/><path class="cls-2" d="M65.84,170.52v-39.7A27.09,27.09,0,0,1,60,129.51C43.3,123.7,42.74,103.28,42.72,101H16.16c-.65,22,5,37.89,9.35,47.2S34.25,163,42,166.69C51,170.94,60.75,170.87,65.84,170.52Z" transform="translate(-16.11 -22.98)"/><rect class="cls-3" x="53.32" width="26.81" height="57.11" rx="10.01" ry="10.01"/><rect class="cls-4" x="53.32" y="99.25" width="26.81" height="57.11" rx="10.01" ry="10.01"/><polygon class="cls-5" points="175.66 77.02 153.35 51.02 153.35 67.94 83.89 67.94 83.89 85.81 153.35 85.81 153.35 103.02 175.66 77.02"/></svg>