<svg id="Ios" xmlns="http://www.w3.org/2000/svg" xmlns:xlink="http://www.w3.org/1999/xlink" viewBox="0 0 97.72 164.61"><defs><style>.cls-1{fill:url(#linear-gradient);}.cls-2{fill:url(#linear-gradient-2);}.cls-3{fill:#3b824e;}.cls-4{fill:#71a757;}.cls-5{fill:#87b859;}</style><linearGradient id="linear-gradient" x1="51.14" y1="89.39" x2="148.86" y2="89.39" gradientUnits="userSpaceOnUse"><stop offset="0" stop-color="#3a884b"/><stop offset="1" stop-color="#8ac058"/></linearGradient><linearGradient id="linear-gradient-2" x1="100.03" y1="31.43" x2="124.33" y2="31.43" xlink:href="#linear-gradient"/></defs><title>ios</title><path class="cls-1" d="M145.72,56.68a24.65,24.65,0,0,0-2.93-3.51,26.81,26.81,0,0,0-6.1-4.43,30.26,30.26,0,0,0-14.18-3.56,31.41,31.41,0,0,0-4.48.32,48.12,48.12,0,0,0-11.27,3.28A22.91,22.91,0,0,1,103.2,50a22.3,22.3,0,0,1-3.23.59c-1.14-.34-2.9-.87-5-1.6-4.51-1.54-5.27-2.07-7.82-2.71a23.16,23.16,0,0,0-15.44.9,31.68,31.68,0,0,0-8.1,4.39A30,30,0,0,0,54.78,63c-6.15,12.92-2.95,26.71-1.54,32.76a75.15,75.15,0,0,0,9.38,21.59c.93,1.42,2.66,3.83,4.73,6.4a37.3,37.3,0,0,0,4.85,5.36c4,3.48,7.11,4.14,8,4.3a13.44,13.44,0,0,0,1.66.19,24,24,0,0,0,2.65-.22,27,27,0,0,0,6-1.6c1.08-.42.8-.38,1.88-.8a29.62,29.62,0,0,1,7.48-1.85c.61-.07,1.47-.14,2.5-.17l1.1.08a34,34,0,0,1,4.22.67c4.56,1.06,7.46,3.15,13,3.68a14.49,14.49,0,0,0,2.15.11c6.4-.26,11.06-5.7,14-9.11a49.64,49.64,0,0,0,3-4,60,60,0,0,0,7.51-13.52c.06-.18.43-1.29,1-2.79.22-.61.41-1.11.54-1.45a25.52,25.52,0,0,1-3.14-46Z" transform="translate(-51.14 -17.6)"/><path class="cls-2" d="M100.06,45a.36.36,0,0,1,0-.23s0-.54,0-1.62,0-2,0-2.22a19.15,19.15,0,0,1,1.46-6.1,30.59,30.59,0,0,1,14-14.93,27.1,27.1,0,0,1,8.75-2.34,25.94,25.94,0,0,1-1.6,11.27,29.68,29.68,0,0,1-12.38,13.79,23.19,23.19,0,0,1-4.17,1.77,17.38,17.38,0,0,1-3.67.68C101.26,45.19,100.22,45.41,100.06,45Z" transform="translate(-51.14 -17.6)"/><path class="cls-3" d="M70.3,148.77a2.89,2.89,0,0,1-5.78,0,2.84,2.84,0,0,1,2.91-2.91A2.77,2.77,0,0,1,70.3,148.77Zm-5.19,32.86V156h4.66v25.65Z" transform="translate(-51.14 -17.6)"/><path class="cls-4" d="M108.2,163.4c0,12.29-7.47,18.81-16.59,18.81-9.43,0-16.06-7.31-16.06-18.12,0-11.34,7-18.76,16.59-18.76C101.89,145.33,108.2,152.8,108.2,163.4ZM80.48,164c0,7.63,4.13,14.47,11.39,14.47s11.45-6.73,11.45-14.84c0-7.1-3.71-14.52-11.39-14.52S80.48,156.14,80.48,164Z" transform="translate(-51.14 -17.6)"/><path class="cls-5" d="M113.55,176a16.34,16.34,0,0,0,8.27,2.33c4.72,0,7.47-2.49,7.47-6.09,0-3.34-1.91-5.25-6.73-7.1-5.83-2.07-9.43-5.09-9.43-10.12,0-5.56,4.61-9.7,11.55-9.7a16.22,16.22,0,0,1,7.9,1.75l-1.27,3.76a14.22,14.22,0,0,0-6.78-1.7c-4.87,0-6.73,2.92-6.73,5.35,0,3.34,2.17,5,7.1,6.89,6,2.33,9.12,5.25,9.12,10.49,0,5.51-4.08,10.28-12.51,10.28a18.45,18.45,0,0,1-9.12-2.28Z" transform="translate(-51.14 -17.6)"/></svg>