<svg id="Layer_6" data-name="Layer 6" xmlns="http://www.w3.org/2000/svg" xmlns:xlink="http://www.w3.org/1999/xlink" viewBox="0 0 87 164.82"><defs><style>.cls-1{fill:url(#linear-gradient);}</style><linearGradient id="linear-gradient" x1="49.92" y1="100.01" x2="136.92" y2="100.01" gradientUnits="userSpaceOnUse"><stop offset="0" stop-color="#3a884b"/><stop offset="1" stop-color="#8ac058"/></linearGradient></defs><title>mobile</title><path class="cls-1" d="M119.45,17.6H67.4a17.31,17.31,0,0,0-17.47,17V165.38a17.31,17.31,0,0,0,17.47,17h52.05a17.31,17.31,0,0,0,17.47-17V34.64A17.31,17.31,0,0,0,119.45,17.6Zm-1.23,9.76a2.82,2.82,0,1,1-2.89,2.82A2.86,2.86,0,0,1,118.22,27.37ZM106.13,176a2.68,2.68,0,0,1-2.71,2.64h-20A2.68,2.68,0,0,1,80.71,176h0a2.68,2.68,0,0,1,2.71-2.64h20a2.68,2.68,0,0,1,2.71,2.64Zm25.29-13a1.86,1.86,0,0,1-1.87,1.83h-72A1.86,1.86,0,0,1,55.67,163V36.69a1.86,1.86,0,0,1,1.88-1.83h72a1.86,1.86,0,0,1,1.88,1.83Z" transform="translate(-49.92 -17.6)"/></svg>