<svg id="Layer_7" data-name="Layer 7" xmlns="http://www.w3.org/2000/svg" xmlns:xlink="http://www.w3.org/1999/xlink" viewBox="0 0 164.13 108.41"><defs><style>.cls-1{fill:url(#linear-gradient);}.cls-2{fill:url(#linear-gradient-2);}.cls-3{fill:url(#linear-gradient-3);}.cls-4{fill:url(#linear-gradient-4);}.cls-5{fill:url(#linear-gradient-5);}</style><linearGradient id="linear-gradient" x1="101.32" y1="122.8" x2="101.32" y2="122.8" gradientUnits="userSpaceOnUse"><stop offset="0" stop-color="#3a884b"/><stop offset="1" stop-color="#8ac058"/></linearGradient><linearGradient id="linear-gradient-2" x1="0" y1="49.44" x2="39.18" y2="49.44" xlink:href="#linear-gradient"/><linearGradient id="linear-gradient-3" x1="39.18" y1="101.5" x2="140.4" y2="101.5" xlink:href="#linear-gradient"/><linearGradient id="linear-gradient-4" x1="160.35" y1="148.57" x2="182.03" y2="148.57" xlink:href="#linear-gradient"/><linearGradient id="linear-gradient-5" x1="62.91" y1="92.01" x2="165.23" y2="92.01" xlink:href="#linear-gradient"/></defs><title>pc</title><path class="cls-1" d="M101.32,122.8" transform="translate(-17.9 -47.6)"/><rect class="cls-2" y="4.29" width="39.18" height="90.31" rx="4.65" ry="4.65"/><polygon class="cls-3" points="134.15 94.6 96.16 94.6 83.42 94.6 45.43 94.6 39.18 108.41 83.42 108.41 96.16 108.41 140.4 108.41 134.15 94.6"/><path class="cls-4" d="M160.35,148.64a22.79,22.79,0,0,0,6,3.52,21.6,21.6,0,0,0,7,1.52h8a5.84,5.84,0,0,0,.66-2,6.22,6.22,0,0,0-.66-3.69,20.87,20.87,0,0,0-2.22-1.91,20,20,0,0,0-3.94-2.29,16.91,16.91,0,0,0-6.5,0l-8.3,2.61v2.24Z" transform="translate(-17.9 -47.6)"/><path class="cls-5" d="M161.55,47.6h-95a3.87,3.87,0,0,0-3.68,4v67.17a3.87,3.87,0,0,0,3.68,4h43.89v9.52h-9.15v4.1h25.41v-4.1h-9.24V122.8h44.06a3.87,3.87,0,0,0,3.68-4V51.61A3.87,3.87,0,0,0,161.55,47.6Zm-1.63,69.78H68.55V54.88h91.37Z" transform="translate(-17.9 -47.6)"/></svg>