<svg id="Layer_5" data-name="Layer 5" xmlns="http://www.w3.org/2000/svg" viewBox="0 0 164.13 151.02"><defs><style>.cls-1{fill:#71a757;}</style></defs><title>tv</title><path class="cls-1" d="M17.9,55.5V158.3h0a3.2,3.2,0,0,0,3,3.34q38,1.79,78.91,1.86T179,161.64a2.84,2.84,0,0,0,2.09-1,3.63,3.63,0,0,0,.89-2.36h0V55.5Zm6.2,6.87H176.16v88.7H24.1Z" transform="translate(-17.9 -31.03)"/><path class="cls-1" d="M156.58,179.87l-53.19-11.42v-2.12H96.87v2.12L43.68,179.87a1.31,1.31,0,0,0-.74,1.16,1.46,1.46,0,0,0,1.89,1l52-7.83h6.53l52,7.83a1.46,1.46,0,0,0,1.89-1A1.31,1.31,0,0,0,156.58,179.87Z" transform="translate(-17.9 -31.03)"/><rect class="cls-1" x="85.51" y="25.98" width="2.66" height="37.9" rx="1.05" ry="1.05" transform="translate(-24.24 43.54) rotate(-45)"/><rect class="cls-1" x="111.76" y="25.98" width="2.66" height="37.9" rx="1.05" ry="1.05" transform="translate(46.99 -97.84) rotate(45)"/></svg>