<svg id="Layer_1" data-name="Layer 1" xmlns="http://www.w3.org/2000/svg" xmlns:xlink="http://www.w3.org/1999/xlink" viewBox="0 0 164.13 164.82"><defs><style>.cls-1{fill:url(#linear-gradient);}.cls-2{fill:url(#linear-gradient-2);}.cls-3{fill:url(#linear-gradient-3);}.cls-4{fill:url(#linear-gradient-4);}</style><linearGradient id="linear-gradient" x1="93.42" y1="57.32" x2="182.03" y2="57.32" gradientUnits="userSpaceOnUse"><stop offset="0" stop-color="#3a884b"/><stop offset="1" stop-color="#8ac058"/></linearGradient><linearGradient id="linear-gradient-2" x1="17.9" y1="64.49" x2="86.01" y2="64.49" xlink:href="#linear-gradient"/><linearGradient id="linear-gradient-3" x1="93.42" y1="143.48" x2="182.03" y2="143.48" xlink:href="#linear-gradient"/><linearGradient id="linear-gradient-4" x1="17.9" y1="136.55" x2="85.64" y2="136.55" xlink:href="#linear-gradient"/></defs><title>windows</title><path class="cls-1" d="M93.42,97,182,96.31V17.6L93.46,30.27Q93.44,63.65,93.42,97Z" transform="translate(-17.9 -17.6)"/><path class="cls-2" d="M85.64,97.1V31.47l.37-.13L17.9,41.08V97.65Z" transform="translate(-17.9 -17.6)"/><path class="cls-3" d="M93.42,104.55l0,65.62L182,182.42V105.18Z" transform="translate(-17.9 -17.6)"/><path class="cls-4" d="M85.64,104.49,17.9,104v55.71l67.74,9.37Q85.64,136.79,85.64,104.49Z" transform="translate(-17.9 -17.6)"/></svg>